<svg width="150" height="80" viewBox="0 0 150 80" fill="none" xmlns="http://www.w3.org/2000/svg">
<g id="Frame 1" filter="url(#filter0_b)">
<rect id="brand-logo" width="150" height="80" rx="20" fill="black"/>
<path id="brand-logo-text" d="M42.9266 42.3125L39.2703 46.25V56H32.2391V21.875H39.2703V37.3438L42.3641 33.1016L51.0594 21.875H59.7078L47.5906 37.0391L60.0594 56H51.6922L42.9266 42.3125ZM86.7734 48.9688H74.4453L72.1016 56H64.625L77.3281 21.875H83.8437L96.6172 56H89.1406L86.7734 48.9688ZM76.3437 43.2734H84.875L80.5859 30.5L76.3437 43.2734ZM113.792 21.875L122.558 46.625L131.277 21.875H140.511V56H133.456V46.6719L134.159 30.5703L124.948 56H120.12L110.933 30.5938L111.636 46.6719V56H104.605V21.875H113.792ZM171.139 48.9688H158.811L156.467 56H148.991L161.694 21.875H168.209L180.983 56H173.506L171.139 48.9688ZM160.709 43.2734H169.241L164.952 30.5L160.709 43.2734ZM196.002 50.3516H210.931V56H188.97V21.875H196.002V50.3516ZM240.317 41.2109H226.817V50.3516H242.661V56H219.786V21.875H242.614V27.5703H226.817V35.7031H240.317V41.2109ZM269.281 47.0469C269.281 45.7188 268.812 44.7031 267.875 44C266.938 43.2812 265.25 42.5312 262.812 41.75C260.375 40.9531 258.445 40.1719 257.023 39.4062C253.148 37.3125 251.211 34.4922 251.211 30.9453C251.211 29.1016 251.727 27.4609 252.758 26.0234C253.805 24.5703 255.297 23.4375 257.234 22.625C259.188 21.8125 261.375 21.4062 263.797 21.4062C266.234 21.4062 268.406 21.8516 270.312 22.7422C272.219 23.6172 273.695 24.8594 274.742 26.4688C275.805 28.0781 276.336 29.9062 276.336 31.9531H269.305C269.305 30.3906 268.812 29.1797 267.828 28.3203C266.844 27.4453 265.461 27.0078 263.68 27.0078C261.961 27.0078 260.625 27.375 259.672 28.1094C258.719 28.8281 258.242 29.7812 258.242 30.9688C258.242 32.0781 258.797 33.0078 259.906 33.7578C261.031 34.5078 262.68 35.2109 264.852 35.8672C268.852 37.0703 271.766 38.5625 273.594 40.3438C275.422 42.125 276.336 44.3438 276.336 47C276.336 49.9531 275.219 52.2734 272.984 53.9609C270.75 55.6328 267.742 56.4688 263.961 56.4688C261.336 56.4688 258.945 55.9922 256.789 55.0391C254.633 54.0703 252.984 52.75 251.844 51.0781C250.719 49.4062 250.156 47.4688 250.156 45.2656H257.211C257.211 49.0312 259.461 50.9141 263.961 50.9141C265.633 50.9141 266.938 50.5781 267.875 49.9062C268.812 49.2188 269.281 48.2656 269.281 47.0469ZM313.691 56H306.659V41.375H292.948V56H285.917V21.875H292.948V35.7031H306.659V21.875H313.691V56Z" fill="#EDDCD2"/>
</g>
<defs>
<filter id="filter0_b" x="-4" y="-4" width="358" height="88" filterUnits="userSpaceOnUse" color-interpolation-filters="sRGB">
<feFlood flood-opacity="0" result="BackgroundImageFix"/>
<feGaussianBlur in="BackgroundImage" stdDeviation="2"/>
<feComposite in2="SourceAlpha" operator="in" result="effect1_backgroundBlur"/>
<feBlend mode="normal" in="SourceGraphic" in2="effect1_backgroundBlur" result="shape"/>
</filter>
</defs>
</svg>
